<!DOCTYPE svg PUBLIC "-//W3C//DTD SVG 1.1//EN" "http://www.w3.org/Graphics/SVG/1.1/DTD/svg11.dtd">
<!-- Uploaded to: SVG Repo, www.svgrepo.com, Transformed by: SVG Repo Mixer Tools -->
<svg width="800px" height="800px" viewBox="-3.6 -3.6 43.20 43.20" xmlns="http://www.w3.org/2000/svg" xmlns:xlink="http://www.w3.org/1999/xlink" aria-hidden="true" role="img" class="iconify iconify--twemoji" preserveAspectRatio="xMidYMid meet" fill="#000000" transform="rotate(0)matrix(1, 0, 0, 1, 0, 0)" stroke="#000000" stroke-width="0.00036">
<g id="SVGRepo_bgCarrier" stroke-width="0"/>
<g id="SVGRepo_tracerCarrier" stroke-linecap="round" stroke-linejoin="round" stroke="#CCCCCC" stroke-width="0.144"/>
<g id="SVGRepo_iconCarrier">
<path fill="#bae6fd" d="M9 28.5a1.5 1.5 0 0 1 3 0v.5s0 3 3 3s3-3 3-3V3.5a1.5 1.5 0 1 1 3 0V29s0 6-6 6s-6-6-6-6v-.5z"/>
<path fill="#0ea5e9" d="M19.5 4C28.612 4 36 9.82 36 17c0 0 0 2-1 2s-3-2-3-2H7s-2 2-3 2s-1-2-1-2C3 9.82 10.387 4 19.5 4z"/>
<path fill="#0369a1" d="M19.5 4C26.403 4 32 9.82 32 17c0 0 0 2-2 2s-5-2-5-2H14s-3 2-5 2s-2-2-2-2C7 9.82 12.596 4 19.5 4z"/>
<path fill="#0ea5e9" d="M19.5 4C23.09 4 25 9.82 25 17c0 0-3 2-5 2h-1c-2 0-5-2-5-2c0-7.18 1.91-13 5.5-13z"/>
</g>
</svg>